<?xml version="1.0" standalone="no"?>
<!DOCTYPE svg PUBLIC "-//W3C//DTD SVG 20010904//EN"
 "http://www.w3.org/TR/2001/REC-SVG-20010904/DTD/svg10.dtd">
<svg version="1.0" xmlns="http://www.w3.org/2000/svg"
 width="512.000000pt" height="512.000000pt" viewBox="0 0 512.000000 512.000000"
 preserveAspectRatio="xMidYMid meet">
<metadata>
Created by potrace 1.11, written by Peter Selinger 2001-2013
</metadata>
<g transform="translate(0.000000,512.000000) scale(0.100000,-0.100000)"
fill="#000000" stroke="none">
<path d="M2388 5105 c-2 -2 -39 -6 -83 -10 -68 -6 -123 -14 -275 -40 -99 -17
-340 -94 -470 -150 -441 -188 -844 -522 -1108 -915 -31 -47 -59 -87 -62 -90
-19 -19 -131 -238 -177 -345 -86 -199 -152 -441 -179 -655 -3 -25 -8 -56 -11
-70 -9 -47 -11 -425 -2 -505 24 -220 73 -445 133 -607 19 -51 40 -109 47 -128
31 -82 161 -325 234 -435 44 -66 82 -122 85 -125 3 -3 36 -43 74 -90 147 -181
374 -384 578 -517 98 -64 338 -196 338 -186 0 3 6 1 13 -4 35 -28 358 -137
472 -159 11 -2 31 -6 45 -9 201 -40 345 -53 571 -51 113 2 210 5 215 8 5 3 40
9 79 13 38 4 72 8 75 10 3 2 26 6 50 10 25 3 63 11 85 17 22 5 48 12 59 14
108 20 398 127 505 185 30 16 58 29 62 29 4 0 37 18 74 41 247 150 372 246
545 419 119 119 142 145 241 277 208 277 377 639 445 958 42 196 56 315 59
525 3 214 -5 320 -41 514 -31 167 -95 378 -156 516 -16 36 -29 66 -29 68 2 6
-83 167 -128 244 -145 246 -353 486 -590 681 -285 234 -678 425 -1036 503
-194 43 -367 61 -572 62 -89 0 -163 -1 -165 -3z m-531 -1100 c16 -9 40 -33 53
-53 25 -35 25 -38 25 -256 0 -213 -1 -222 -23 -258 -51 -82 -149 -105 -234
-56 -48 29 -85 91 -75 128 3 11 2 20 -1 20 -4 0 -6 42 -5 92 3 110 3 108 0
178 -3 75 9 128 39 167 54 71 141 86 221 38z m1578 7 c36 -19 66 -59 78 -103
10 -36 15 -286 8 -414 -2 -35 -53 -104 -91 -122 -61 -29 -122 -23 -183 19 -56
39 -61 64 -63 288 -1 179 1 210 17 248 20 48 33 63 69 82 53 29 115 29 165 2z
m-773 -15 c64 -50 70 -76 66 -319 l-3 -215 -29 -37 c-76 -101 -230 -90 -285
19 -19 39 -21 58 -21 245 0 186 2 207 21 247 34 69 78 94 165 89 37 -2 60 -10
86 -29z m-1157 -308 c2 -3 5 -50 6 -104 2 -118 22 -185 73 -237 102 -105 270
-103 369 4 57 61 71 112 68 246 -1 76 1 92 14 93 20 1 241 1 258 0 9 -1 12
-31 13 -114 2 -125 13 -163 66 -223 99 -113 281 -110 380 5 45 52 60 108 63
224 2 51 3 97 4 102 1 8 213 12 273 6 4 -1 7 -44 7 -97 0 -145 11 -180 73
-248 10 -11 18 -23 18 -28 0 -4 3 -7 8 -6 4 1 30 -9 57 -21 89 -41 202 -19
274 51 59 58 74 100 80 233 l6 120 95 -2 c52 -1 113 -7 135 -13 61 -17 146
-79 182 -133 66 -98 63 -49 63 -1148 0 -1020 -2 -1070 -38 -1129 -37 -58 -77
-103 -115 -127 -93 -58 -11 -55 -1373 -55 -1154 -1 -1255 1 -1303 17 -28 9
-51 20 -51 24 0 3 -13 12 -29 17 -56 22 -157 180 -136 214 3 6 1 10 -5 10 -7
0 -10 298 -8 1033 l3 1032 26 56 c68 144 182 206 376 203 35 0 65 -3 68 -5z"/>
<path d="M1261 2998 c-3 -9 -6 -371 -5 -805 1 -862 -2 -829 59 -863 28 -16
128 -17 1250 -16 1309 1 1247 -1 1282 52 15 23 16 98 17 826 1 440 -2 805 -6
811 -5 8 -377 11 -1298 11 -1205 1 -1293 0 -1299 -16z m1187 -226 c43 -25 54
-56 54 -151 0 -158 -22 -174 -234 -174 -123 0 -143 3 -166 20 -41 31 -52 61
-52 151 0 93 13 127 58 153 35 20 304 21 340 1z m589 -25 l35 -39 -4 -98 c-5
-151 -23 -164 -244 -163 -182 1 -206 20 -207 169 0 71 3 95 18 118 30 46 62
53 222 52 l145 -1 35 -38z m547 20 c41 -27 54 -70 52 -163 -2 -84 -13 -111
-56 -141 -33 -23 -310 -22 -345 1 -41 27 -52 63 -51 156 2 149 28 167 235 166
115 -1 141 -4 165 -19z m-1700 -452 c40 -26 49 -52 52 -139 3 -92 -11 -136
-52 -163 -24 -15 -50 -18 -171 -19 -161 -1 -193 9 -217 69 -16 37 -14 168 2
208 23 56 57 65 243 63 92 -2 122 -5 143 -19z m570 -2 c37 -27 49 -64 49 -157
0 -88 -14 -125 -57 -149 -27 -15 -258 -19 -311 -6 -28 7 -48 21 -64 44 -21 31
-23 43 -19 129 3 88 5 98 30 122 33 34 69 39 224 37 102 -1 128 -5 148 -20z
m571 -7 c40 -31 49 -64 43 -168 -3 -77 -24 -121 -61 -134 -36 -12 -102 -12
-116 -1 -10 8 -13 8 -8 1 5 -8 -20 -11 -86 -10 -151 3 -180 30 -180 171 0 55
5 90 17 113 9 17 18 32 19 32 1 0 18 6 38 13 23 8 84 12 168 11 125 -1 132 -3
166 -28z m559 9 c15 -10 32 -27 38 -39 17 -30 18 -174 3 -213 -24 -58 -52 -68
-209 -69 -202 -2 -229 16 -232 159 -2 95 8 130 45 156 34 24 50 26 202 24 102
-1 132 -4 153 -18z m-1703 -452 c45 -27 57 -63 55 -166 -3 -89 -3 -90 -38
-122 l-36 -33 -141 -1 c-213 -3 -241 19 -237 180 2 90 17 124 61 146 11 6 85
11 163 12 119 1 149 -2 173 -16z m558 4 c47 -24 64 -59 63 -134 0 -116 -1
-122 -31 -155 l-29 -33 -150 -3 c-217 -5 -242 13 -242 175 1 77 4 92 24 117
15 18 28 26 36 21 8 -5 11 -4 6 3 -10 17 13 20 159 21 93 0 148 -3 164 -12z
m572 -3 c42 -21 59 -68 59 -159 0 -145 -28 -165 -227 -165 -148 0 -172 6 -206
51 -16 22 -19 44 -20 118 -1 99 13 132 64 158 38 20 292 17 330 -3z"/>
</g>
</svg>
