<?xml version="1.0" standalone="no"?>
<!DOCTYPE svg PUBLIC "-//W3C//DTD SVG 20010904//EN"
 "http://www.w3.org/TR/2001/REC-SVG-20010904/DTD/svg10.dtd">
<svg version="1.0" xmlns="http://www.w3.org/2000/svg"
 width="800.000000pt" height="800.000000pt" viewBox="0 0 800.000000 800.000000"
 preserveAspectRatio="xMidYMid meet">
<metadata>
Created by potrace 1.11, written by Peter Selinger 2001-2013
</metadata>
<g transform="translate(0.000000,800.000000) scale(0.100000,-0.100000)"
fill="#000000" stroke="none">
<path d="M3768 7405 c-1 -1 -38 -6 -81 -10 -43 -3 -88 -8 -100 -10 -12 -2 -42
-6 -67 -9 -25 -3 -55 -8 -66 -10 -12 -2 -39 -7 -60 -10 -22 -3 -50 -8 -64 -11
-14 -3 -34 -7 -45 -9 -91 -18 -330 -88 -445 -130 -322 -117 -588 -261 -878
-473 -39 -29 -82 -62 -95 -72 -497 -415 -825 -862 -1045 -1426 -93 -239 -176
-553 -197 -750 -3 -33 -8 -67 -10 -75 -19 -74 -27 -549 -12 -719 59 -662 325
-1316 746 -1835 182 -225 408 -440 651 -618 164 -120 438 -279 610 -352 36
-15 80 -35 99 -43 133 -60 467 -160 631 -189 8 -2 31 -6 50 -9 92 -18 207 -34
300 -42 176 -16 593 -8 740 13 119 18 224 36 285 50 39 8 86 19 105 23 59 14
121 31 220 63 509 165 970 443 1345 814 97 96 134 135 230 244 95 109 254 339
350 505 154 268 301 647 360 925 2 8 8 37 14 63 13 58 47 282 58 387 10 97 10
523 0 620 -20 192 -65 447 -98 555 -23 77 -51 171 -54 185 -28 118 -181 464
-286 645 -83 145 -283 434 -329 475 -3 3 -34 39 -70 80 -162 189 -396 398
-610 547 -85 59 -266 173 -274 173 -3 0 -31 15 -63 34 -172 101 -551 249 -769
301 -25 6 -155 35 -174 40 -41 8 -211 35 -260 40 -30 3 -71 8 -90 11 -38 6
-546 14 -552 9z"/>
</g>
</svg>
